<?xml version="1.0" encoding="UTF-8"?>
<svg xmlns="http://www.w3.org/2000/svg" width="100" height="100" id="exportedSVG" version="1.1" pencil:version="1.2.2" xmlns:pencil="http://www.evolus.vn/Namespace/Pencil" sodipodi:docname="mobile1.ep" xmlns:sodipodi="http://sodipodi.sourceforge.net/DTD/sodipodi-0.dtd"><g inkscape:label="ww" xmlns:inkscape="http://www.inkscape.org/namespaces/inkscape" inkscape:groupmode="layer" id="layer_ww"><g><rect x="0" y="0" width="100" height="100" fill="none"/><g pencil:type="Shape" pencil:def="nz.nwatson.MaterialIcons:lock" id="6546dbcd9f13447eb326a2de368ff499" transform="matrix(1,0,0,1,0,0)" pencil:sizing-ox="148" pencil:sizing-oy="172.25" pencil:sizing-ow="100" pencil:sizing-oh="100"><pencil:metadata><pencil:property name="box">100,100</pencil:property><pencil:property name="fillColor">#4388CCFF</pencil:property></pencil:metadata>
      <rect style="fill: #000000; fill-opacity: 0; stroke: none;" x="0" y="0" pencil:name="bgRect" id="9a500864f2be492ea9102593c036d268" width="100" height="100"/>
      <g pencil:name="icon" id="597c1fa9fbfc454e99c594f5ce5448af" transform="scale(4.166666666666667,4.166666666666667)" style="fill: rgb(67, 136, 204); fill-opacity: 1;">
        <path stroke-width="0.2" stroke-linejoin="round" d="M 11.9994,16.998C 13.1044,16.998 13.9994,16.1021 13.9994,14.998C 13.9994,13.894 13.1044,12.998 11.9994,12.998C 10.8954,12.998 9.9994,13.894 9.9994,14.998C 9.9994,16.1021 10.8954,16.998 11.9994,16.998 Z M 17.9994,7.99813C 19.1034,7.99813 19.9994,8.89413 19.9994,9.99813L 19.9994,19.9981C 19.9994,21.1021 19.1034,21.9981 17.9994,21.9981L 5.99938,21.9981C 4.89539,21.9981 3.99938,21.1021 3.99938,19.9981L 3.99938,9.99813C 3.99938,8.89413 4.89539,7.99813 5.99938,7.99813L 6.99938,7.99813L 6.99938,5.99813C 6.99938,3.23714 9.23838,0.998133 11.9994,0.998133C 14.7604,0.998133 16.9994,3.23714 16.9994,5.99813L 16.9994,7.99813L 17.9994,7.99813 Z M 12,3C 10.3431,3 9,4.34315 9,6L 9,8L 15,8L 15,6C 15,4.34315 13.6569,3 12,3 Z "/>
      </g>
    </g></g></g></svg>