<?xml version="1.0" encoding="UTF-8"?>
<svg xmlns="http://www.w3.org/2000/svg" width="100" height="100" id="exportedSVG" version="1.1" pencil:version="1.2.2" xmlns:pencil="http://www.evolus.vn/Namespace/Pencil" sodipodi:docname="mobile1.ep" xmlns:sodipodi="http://sodipodi.sourceforge.net/DTD/sodipodi-0.dtd"><g inkscape:label="svg" xmlns:inkscape="http://www.inkscape.org/namespaces/inkscape" inkscape:groupmode="layer" id="layer_svg"><g><rect x="0" y="0" width="100" height="100" fill="none"/><g pencil:type="Shape" pencil:def="nz.nwatson.MaterialIcons:account-circle" id="877754834c3446549b39d1149d16fad7" transform="matrix(1, 0, 0, 1, 0, 0)"><pencil:metadata><pencil:property name="box">100,100</pencil:property><pencil:property name="fillColor">#4388CCFF</pencil:property></pencil:metadata>
      <rect style="fill: #000000; fill-opacity: 0; stroke: none;" x="0" y="0" pencil:name="bgRect" id="dd86cd1f8a4440779b64312b501ab8ed" width="100" height="100"/>
      <g pencil:name="icon" id="43834ca6d2114b60ad7c18fe1933e19a" transform="scale(4.166666666666667,4.166666666666667)" style="fill: rgb(67, 136, 204); fill-opacity: 1;">
        <path stroke-width="0.2" stroke-linejoin="round" d="M 11.9992,19.1982C 9.4952,19.1982 7.2922,17.9193 6.0012,15.9783C 6.0272,13.9913 10.0052,12.8983 11.9992,12.8983C 13.9932,12.8983 17.9712,13.9913 17.9972,15.9783C 16.7062,17.9193 14.5032,19.1982 11.9992,19.1982 Z M 11.9992,4.99823C 13.6552,4.99823 14.9992,6.34222 14.9992,7.99823C 14.9992,9.65625 13.6552,10.9982 11.9992,10.9982C 10.3432,10.9982 8.9992,9.65625 8.9992,7.99823C 8.9992,6.34222 10.3432,4.99823 11.9992,4.99823 Z M 11.9992,1.99823C 6.4762,1.99823 1.9992,6.47424 1.9992,11.9982C 1.9992,17.5212 6.4762,21.9982 11.9992,21.9982C 17.5222,21.9982 21.9992,17.5212 21.9992,11.9982C 21.9992,6.47424 17.5222,1.99823 11.9992,1.99823 Z "/>
      </g>
    </g></g></g></svg>